<svg width="24" height="24" viewBox="0 0 24 24" fill="none" xmlns="http://www.w3.org/2000/svg">
<path d="M11.4995 22.2609C11.1062 22.2609 10.7307 22.1362 10.4133 21.9001C8.2588 20.3012 3.10938 16.3239 1.81755 13.9143C0.127895 10.7654 1.14258 6.72131 4.07489 4.89968C5.02253 4.31177 6.09533 4 7.18601 4C8.81755 4 10.3508 4.66808 11.4995 5.85726C12.6483 4.66808 14.1815 4 15.8131 4C16.9038 4 17.9766 4.31177 18.9242 4.89968C21.8565 6.72131 22.8712 10.7654 21.186 13.9143C19.8942 16.3239 14.7448 20.3012 12.5902 21.9001C12.2684 22.1362 11.8929 22.2609 11.4995 22.2609ZM7.18601 5.33616C6.34565 5.33616 5.5187 5.57667 4.78562 6.03096C2.43888 7.49183 1.63428 10.7432 2.99763 13.2819C4.19558 15.5177 9.58639 19.6242 11.209 20.8267C11.3789 20.9514 11.6158 20.9514 11.7856 20.8267C13.4082 19.6197 18.799 15.5133 19.997 13.2819C21.3603 10.7432 20.5557 7.48738 18.209 6.03096C17.4804 5.57667 16.6534 5.33616 15.8131 5.33616C14.3425 5.33616 12.9657 6.04878 12.0359 7.28696L11.4995 8.00848L10.9631 7.28696C10.0334 6.04878 8.6611 5.33616 7.18601 5.33616Z" fill="black" stroke="black" stroke-width="0.6"/>
</svg>
